<?xml version="1.0" standalone="no"?>
<!DOCTYPE svg PUBLIC "-//W3C//DTD SVG 20010904//EN"
 "http://www.w3.org/TR/2001/REC-SVG-20010904/DTD/svg10.dtd">
<svg version="1.0" xmlns="http://www.w3.org/2000/svg"
 width="260.000000pt" height="260.000000pt" viewBox="0 0 260.000000 260.000000"
 preserveAspectRatio="xMidYMid meet">
<metadata>
Created by potrace 1.14, written by Peter Selinger 2001-2017
</metadata>
<g transform="translate(0.000000,260.000000) scale(0.100000,-0.100000)"
fill="#000000" stroke="none">
<path d="M2045 2200 c-10 -11 -15 -23 -12 -26 3 -4 -1 -13 -9 -21 -12 -12 -12
-18 -2 -31 11 -13 10 -15 -5 -9 -12 4 -17 2 -15 -6 2 -6 -2 -13 -7 -14 -6 -2
-10 1 -10 7 0 5 -7 15 -15 22 -12 11 -12 11 -3 -2 7 -10 8 -21 3 -30 -5 -8 -6
-18 -4 -22 3 -5 -5 -12 -18 -17 -13 -6 -17 -10 -10 -10 7 -1 10 -6 7 -11 -4
-6 -11 -7 -17 -4 -7 5 -8 2 -3 -6 10 -16 -15 -32 -31 -19 -8 6 -10 2 -8 -16 2
-21 0 -24 -11 -15 -11 9 -12 7 -8 -9 3 -12 9 -21 15 -21 5 0 3 -6 -4 -13 -13
-15 -36 -16 -57 -2 -9 5 -12 4 -8 -2 4 -6 0 -16 -8 -23 -10 -8 -12 -17 -5 -29
10 -20 -2 -46 -22 -46 -7 0 -13 -11 -12 -24 1 -22 0 -23 -12 -6 -7 10 -11 23
-7 29 3 6 2 7 -3 3 -5 -5 -9 -14 -9 -20 -1 -7 -7 -11 -14 -9 -7 1 -10 -2 -6
-8 3 -5 -1 -13 -11 -17 -14 -5 -13 -8 7 -20 15 -9 17 -12 5 -9 -14 5 -17 2
-12 -10 5 -14 4 -15 -8 -5 -12 10 -14 9 -9 -8 3 -12 10 -18 16 -14 6 3 7 1 3
-5 -4 -6 -14 -8 -23 -5 -12 5 -14 3 -8 -8 4 -8 5 -11 0 -7 -11 11 -36 -12 -28
-25 3 -6 1 -7 -6 -3 -8 6 -9 12 -2 20 6 7 7 17 3 21 -4 5 -1 5 6 1 6 -4 12 -2
12 4 0 17 -25 6 -25 -11 -1 -8 -7 -13 -15 -11 -12 3 -13 1 -2 -9 17 -18 15
-32 -3 -26 -8 4 -17 1 -21 -5 -4 -6 -3 -8 2 -5 6 3 15 2 22 -2 8 -4 5 -11 -9
-20 -17 -10 -20 -10 -13 1 4 7 -5 0 -19 -15 -32 -33 -33 -38 -9 -30 10 3 6 -2
-8 -13 -14 -10 -29 -18 -33 -16 -5 1 -5 -2 -2 -8 4 -6 13 -9 21 -6 27 10 14
-4 -18 -19 -29 -14 -31 -14 -14 0 11 8 15 15 9 15 -18 0 -34 -26 -27 -46 3
-11 2 -15 -3 -8 -11 15 -40 13 -40 -3 0 -10 3 -10 15 0 13 10 14 9 3 -10 -6
-13 -9 -23 -5 -23 3 0 1 -6 -5 -13 -6 -8 -8 -17 -4 -21 4 -4 -1 -4 -11 0 -13
5 -17 4 -13 -3 4 -7 0 -10 -9 -9 -8 1 -19 8 -23 15 -6 9 -10 8 -16 -6 -5 -10
-7 -22 -6 -27 1 -5 -8 -19 -20 -32 -12 -13 -19 -24 -15 -24 5 0 3 -6 -3 -13
-6 -8 -7 -17 -3 -22 4 -4 -3 -2 -16 4 -12 7 -22 8 -21 4 1 -4 0 -11 -1 -15 -1
-5 -3 -14 -4 -20 -1 -7 -8 -12 -15 -10 -7 1 -10 -2 -6 -8 3 -6 10 -8 15 -5 5
3 12 0 16 -6 5 -8 -1 -10 -19 -7 -28 5 -33 -12 -7 -24 12 -5 12 -7 -3 -7 -10
-1 -20 6 -23 14 -4 10 -10 12 -18 6 -11 -9 -13 -3 -18 73 -2 27 -6 32 -16 24
-11 -9 -11 -13 0 -19 9 -6 9 -9 1 -9 -6 0 -22 13 -36 29 -14 17 -27 28 -29 25
-3 -2 -5 3 -5 11 0 9 6 14 12 11 6 -2 12 2 12 10 0 8 -3 12 -5 9 -3 -3 -12 1
-20 8 -13 10 -14 9 -7 -2 5 -10 4 -12 -3 -7 -17 10 -15 24 6 30 9 2 -1 3 -23
1 -22 -2 -34 -1 -27 1 6 3 12 10 12 15 0 6 -4 7 -10 4 -5 -3 -10 -1 -10 5 0 6
-5 8 -11 4 -7 -4 -7 1 1 16 11 20 10 22 -4 17 -12 -5 -15 -3 -9 5 21 36 0 56
-36 33 -10 -5 -12 -4 -7 3 9 15 -6 16 -20 2 -7 -7 -11 -6 -11 4 0 8 4 13 9 10
13 -9 9 6 -7 22 -8 9 -15 21 -15 27 0 7 5 4 11 -5 5 -10 15 -18 20 -18 6 0 3
7 -6 16 -13 14 -14 19 -3 26 9 6 6 7 -9 3 -12 -3 -25 -1 -29 6 -4 7 -3 9 4 5
6 -3 13 -2 16 3 10 15 -25 6 -36 -10 -8 -11 -9 -10 -4 4 4 12 2 17 -6 14 -7
-2 -12 -10 -10 -16 1 -7 -2 -10 -8 -6 -8 5 -8 11 0 20 8 10 8 20 1 33 -5 10
-7 23 -3 28 4 5 6 8 4 7 -9 -4 -40 32 -35 40 3 5 -4 4 -16 -2 -18 -10 -21 -9
-21 6 0 15 -2 16 -10 3 -5 -8 -10 -10 -10 -4 0 5 6 16 13 23 10 11 9 13 -5 8
-10 -3 -20 -1 -24 5 -4 6 -3 8 3 5 6 -4 16 0 22 7 10 12 8 13 -8 9 -13 -3 -21
-1 -21 6 0 7 5 9 12 5 7 -4 8 -3 4 4 -4 6 -13 9 -21 5 -8 -3 -15 0 -15 6 0 15
-27 14 -33 -1 -2 -7 -3 9 -3 37 1 43 -2 50 -19 52 l-20 3 20 -9 c14 -7 15 -10
5 -10 -31 -2 -58 27 -56 60 2 24 -2 33 -16 37 -10 2 -18 9 -18 14 0 5 5 6 11
3 6 -4 5 2 -3 14 -7 12 -14 17 -16 11 -6 -18 -22 -11 -16 8 5 16 5 16 -6 -1
-6 -9 -16 -14 -22 -11 -7 4 -8 2 -4 -4 4 -8 0 -12 -11 -12 -15 0 -16 -2 -3
-10 18 -11 21 -100 4 -93 -7 2 -15 -1 -20 -8 -4 -8 -3 -10 4 -5 6 4 17 -6 26
-22 17 -33 13 -44 -12 -34 -16 5 -15 4 0 -11 9 -10 15 -27 13 -39 -3 -12 1
-28 8 -37 8 -9 8 -12 1 -8 -8 4 -13 -4 -16 -23 -3 -19 -1 -27 6 -23 6 4 4 -2
-4 -12 -11 -14 -12 -17 -1 -11 9 6 12 5 9 -5 -3 -8 -12 -13 -19 -11 -8 2 -6
-4 6 -18 24 -26 29 -51 8 -43 -10 4 -11 8 -3 13 8 5 7 9 -3 13 -18 7 -17 -8 3
-43 7 -14 12 -27 10 -30 -3 -3 -7 -26 -10 -52 -4 -32 -3 -45 4 -41 6 4 4 -2
-4 -12 -9 -11 -10 -16 -3 -11 7 4 13 2 13 -3 0 -6 -4 -11 -9 -11 -5 0 -8 -8
-7 -17 2 -10 -1 -21 -6 -24 -5 -3 -3 -9 5 -12 11 -4 15 0 12 14 -2 11 0 17 5
14 16 -10 3 -40 -16 -37 -15 2 -16 1 -5 -6 20 -14 21 -178 1 -174 -10 2 -8 -3
5 -18 24 -26 29 -51 8 -43 -10 4 -11 8 -3 13 8 5 7 9 -3 13 -18 7 -17 -8 3
-43 7 -14 12 -27 10 -30 -3 -3 -7 -26 -10 -52 -4 -32 -3 -45 4 -41 6 4 4 -2
-4 -12 -9 -11 -10 -16 -2 -11 6 4 12 2 12 -3 0 -6 -4 -11 -9 -11 -5 0 -8 -8
-7 -17 2 -10 -1 -21 -6 -24 -5 -3 -3 -9 5 -12 11 -4 15 0 12 14 -2 11 0 17 5
14 16 -10 3 -40 -16 -37 -15 2 -16 1 -5 -6 15 -11 23 -172 8 -172 -5 0 -5 -10
-1 -22 11 -34 12 -70 3 -95 -5 -12 -4 -25 1 -28 5 -3 6 -13 3 -22 -5 -12 -3
-14 8 -9 8 4 5 0 -5 -8 -20 -16 -33 -51 -15 -40 14 8 11 -20 -3 -35 -9 -10
-10 -12 -1 -7 7 4 16 -2 22 -13 6 -10 18 -21 28 -25 16 -5 15 -4 -1 9 -11 8
-16 18 -12 22 3 4 16 -3 28 -15 19 -18 23 -19 33 -6 6 8 19 17 30 19 11 2 21
4 23 5 1 2 5 3 10 4 4 1 13 5 21 10 9 6 12 5 8 0 -3 -6 -3 -14 1 -19 11 -15
47 -41 39 -29 -4 7 3 12 18 12 14 -1 28 -4 31 -9 6 -11 34 0 34 13 0 6 -6 6
-14 -1 -19 -16 -31 3 -16 26 11 17 11 17 6 1 -3 -10 -1 -18 4 -18 6 0 10 5 10
11 0 5 12 -3 26 -18 14 -15 23 -22 19 -15 -5 9 3 11 29 7 21 -2 36 0 36 6 0 6
-5 7 -10 4 -6 -3 -10 -1 -10 4 0 6 11 10 24 9 21 -2 23 -5 13 -18 -9 -12 -9
-13 3 -3 9 9 19 9 33 2 14 -8 18 -8 13 0 -4 6 0 11 8 11 9 0 16 6 17 13 1 6 5
1 9 -13 6 -18 8 -20 9 -7 1 17 2 17 17 3 18 -18 34 -21 34 -5 0 5 -4 8 -9 4
-5 -3 -12 -2 -15 3 -3 5 8 8 24 8 25 0 28 -2 18 -15 -10 -13 -10 -14 2 -4 9 9
19 9 33 2 14 -8 18 -8 13 0 -4 6 0 11 8 11 9 0 16 6 17 13 1 6 5 1 9 -13 6
-18 8 -20 9 -7 1 17 3 17 16 3 16 -16 45 -12 45 6 0 6 -6 6 -14 -1 -11 -9 -16
-9 -22 1 -4 7 -3 10 1 5 5 -4 17 1 28 10 11 10 18 13 14 8 -3 -6 -3 -15 1 -20
11 -15 47 -41 39 -29 -4 7 3 12 18 12 14 0 28 -4 31 -9 10 -17 35 3 29 25 -2
11 -2 15 1 8 3 -6 10 -10 15 -6 5 3 9 -2 9 -10 0 -9 4 -16 10 -16 5 0 7 7 3
16 -5 14 -3 14 28 -1 l34 -16 -25 21 c-22 18 -22 20 -3 11 12 -6 29 -8 37 -5
9 3 16 1 16 -5 0 -6 5 -11 11 -11 5 0 8 4 5 9 -3 5 1 14 9 21 12 10 13 8 10
-9 -3 -16 1 -21 16 -21 10 0 19 5 19 11 0 5 -6 7 -12 3 -9 -5 -9 -2 1 9 14 17
26 24 17 9 -2 -4 -2 -12 2 -17 11 -15 47 -41 39 -29 -4 7 3 12 18 12 14 0 28
-4 31 -9 6 -11 34 0 34 13 0 6 -6 6 -14 -1 -19 -16 -31 3 -16 26 11 17 11 17
6 1 -3 -10 -1 -18 4 -18 6 0 10 6 10 13 0 6 6 3 12 -8 11 -19 11 -19 19 0 6
16 8 16 8 4 1 -9 10 -19 22 -22 20 -5 20 -5 3 16 -10 12 -12 16 -4 9 21 -18
34 -15 19 6 -13 15 -12 16 4 3 9 -7 17 -10 17 -5 0 5 11 -4 25 -21 13 -16 25
-24 26 -17 1 6 2 16 3 21 0 5 5 13 10 18 5 4 6 3 2 -4 -5 -9 2 -11 24 -8 28 3
30 2 19 -13 -11 -14 -11 -15 1 -5 9 9 19 9 33 2 14 -8 18 -8 13 0 -4 6 0 11 8
11 9 0 16 6 17 13 1 6 5 1 9 -13 6 -18 8 -20 9 -7 1 17 2 17 17 3 8 -9 21 -16
27 -16 7 0 6 4 -3 10 -13 9 -13 10 0 10 8 0 24 8 35 17 13 10 15 14 4 10 -9
-3 -22 -1 -30 5 -11 8 -11 9 3 5 22 -7 30 3 17 20 -9 10 -7 13 7 13 18 1 18 1
1 11 -13 7 -15 15 -8 28 6 10 6 23 1 31 -5 8 -7 17 -4 21 2 4 0 10 -6 14 -6 4
-8 11 -4 16 3 5 10 7 15 3 5 -3 6 -10 3 -16 -4 -7 -2 -8 4 -4 9 5 8 15 -3 37
-9 16 -13 29 -9 29 4 0 1 6 -5 14 -9 11 -8 15 4 20 9 3 13 11 10 17 -4 6 -8
24 -9 40 -2 28 -1 28 17 11 17 -15 16 -12 -3 20 -12 21 -19 38 -15 38 4 0 2 6
-4 14 -8 10 -9 16 -1 21 12 8 9 37 -5 47 -6 5 -6 8 2 8 6 0 10 11 9 24 -2 15
1 23 8 20 7 -3 12 6 12 21 0 20 -4 24 -20 19 -12 -3 -16 -2 -11 3 15 12 17 83
3 101 -11 13 -11 14 0 8 16 -10 13 25 -3 36 -6 5 -5 8 3 8 7 0 11 4 7 9 -3 5
0 13 6 17 8 5 9 3 4 -7 -8 -12 -6 -12 8 0 18 14 23 26 8 16 -13 -7 -23 10 -25
46 -2 28 -1 28 17 11 20 -17 20 -17 3 10 -10 15 -19 35 -21 45 -2 10 -4 18 -5
18 -1 0 -3 8 -5 18 -3 15 -1 16 11 6 7 -6 11 -16 7 -22 -3 -6 -1 -7 5 -3 9 5
9 13 1 28 -6 11 -12 34 -13 49 -2 28 -1 28 17 11 17 -15 16 -12 -3 21 -12 20
-19 37 -15 37 4 0 2 6 -4 14 -8 10 -9 16 -1 21 12 8 9 37 -5 47 -6 5 -6 8 2 8
6 0 10 11 9 24 -2 15 1 23 8 20 7 -3 12 6 12 21 0 20 -4 24 -20 19 -12 -3 -16
-2 -11 3 15 12 17 83 3 101 -11 13 -11 14 0 8 16 -10 13 25 -3 36 -6 5 -5 8 3
8 7 0 11 4 7 9 -3 5 0 13 6 17 8 4 9 3 5 -4 -11 -18 0 -14 15 5 8 10 9 14 2
10 -15 -9 -25 6 -27 44 -2 28 -1 28 17 11 20 -17 20 -17 3 10 -10 15 -19 35
-21 45 -2 10 -4 18 -5 18 -1 0 -3 8 -5 18 -3 15 -1 16 11 6 7 -6 12 -15 9 -18
-2 -4 2 -8 10 -8 12 0 12 4 -1 21 -15 22 -19 50 -6 42 5 -3 9 1 9 9 0 8 -4 12
-8 10 -4 -3 -10 2 -13 11 -8 21 -8 24 5 24 5 0 7 -5 3 -12 -4 -7 -3 -8 5 -4 9
6 9 11 1 21 -8 10 -7 15 2 19 7 3 3 4 -10 2 -12 -2 -20 0 -16 5 3 5 11 9 19 9
8 0 16 4 20 9 3 6 -4 8 -16 6 -21 -4 -21 -4 -3 17 17 19 17 21 2 15 -10 -4
-18 -2 -18 3 0 6 6 10 14 10 8 0 18 4 21 10 4 6 -1 7 -11 3 -13 -5 -16 -3 -11
10 3 9 2 19 -4 22 -5 4 -6 11 -3 17 4 6 -2 6 -15 -1 -24 -13 -29 -26 -5 -17
10 4 13 2 8 -6 -5 -7 -3 -8 6 -3 9 5 11 4 6 -3 -5 -8 -13 -8 -31 0 -19 9 -22
14 -14 25 18 21 4 15 -16 -7z m-1448 -222 c2 -17 0 -19 -7 -8 -5 8 -6 18 -4
22 8 12 10 10 11 -14z m1253 -81 c0 -5 -7 -7 -15 -3 -9 3 -15 0 -15 -10 0 -8
-5 -12 -10 -9 -8 5 -8 11 -1 19 12 15 41 17 41 3z m-104 -119 c4 -7 4 -10 -1
-6 -4 4 -15 2 -24 -5 -14 -11 -14 -10 -2 6 16 20 18 21 27 5z m-871 -98 c16
-17 16 -20 3 -15 -9 4 -19 13 -22 21 -7 19 -2 18 19 -6z m166 -197 c13 -16 12
-17 -3 -4 -10 7 -18 15 -18 17 0 8 8 3 21 -13z m362 -107 c4 -10 1 -13 -8 -9
-8 3 -12 9 -9 14 7 12 11 11 17 -5z m-26 -55 c-1 -11 -6 -17 -14 -14 -10 4
-11 9 -2 19 15 19 18 18 16 -5z m-61 -66 c-1 -8 -5 -17 -8 -21 -5 -4 -4 16 1
34 3 9 9 -1 7 -13z m-735 -708 c-10 -9 -11 -8 -5 6 3 10 9 15 12 12 3 -3 0
-11 -7 -18z m6 -73 c-3 -3 -12 -4 -19 -1 -8 3 -5 6 6 6 11 1 17 -2 13 -5z m3
-54 c0 -5 -2 -10 -4 -10 -3 0 -8 5 -11 10 -3 6 -1 10 4 10 6 0 11 -4 11 -10z
m57 -10 c2 -19 -8 -26 -20 -14 -7 7 2 34 12 34 4 0 7 -9 8 -20z m285 2 c-7 -2
-10 -7 -8 -11 3 -4 -4 -7 -15 -7 -18 0 -18 2 -5 12 9 6 13 14 9 18 -4 4 1 4
12 0 11 -5 14 -9 7 -12z m474 3 c-3 -8 -1 -15 5 -15 6 0 7 -5 3 -11 -10 -16
-26 5 -18 24 3 9 8 17 11 17 3 0 3 -7 -1 -15z m480 -5 c0 -11 -4 -20 -8 -20
-10 0 -11 24 -1 33 9 9 9 10 9 -13z m-1108 -15 c-3 -3 -9 2 -12 12 -6 14 -5
15 5 6 7 -7 10 -15 7 -18z m35 8 c-3 -7 -9 -10 -14 -7 -14 8 -11 21 5 21 8 0
12 -6 9 -14z m217 13 c0 -3 -4 -8 -10 -11 -5 -3 -10 -1 -10 4 0 6 5 11 10 11
6 0 10 -2 10 -4z m160 0 c0 -3 -4 -8 -10 -11 -5 -3 -10 -1 -10 4 0 6 5 11 10
11 6 0 10 -2 10 -4z m148 -21 c-3 -3 -9 2 -12 12 -6 14 -5 15 5 6 7 -7 10 -15
7 -18z m35 8 c-3 -7 -9 -10 -14 -7 -14 8 -11 21 5 21 8 0 12 -6 9 -14z m285
-8 c-3 -3 -9 2 -12 12 -6 14 -5 15 5 6 7 -7 10 -15 7 -18z m35 8 c-3 -7 -9
-10 -14 -7 -14 8 -11 21 5 21 8 0 12 -6 9 -14z m297 13 c0 -3 -4 -8 -10 -11
-5 -3 -10 -1 -10 4 0 6 5 11 10 11 6 0 10 -2 10 -4z"/>
<path d="M556 1953 c-6 -14 -5 -15 5 -6 7 7 10 15 7 18 -3 3 -9 -2 -12 -12z"/>
<path d="M553 1915 c0 -8 4 -12 9 -9 5 3 6 10 3 15 -9 13 -12 11 -12 -6z"/>
<path d="M700 1912 c0 -7 -7 -9 -17 -5 -15 5 -16 3 -5 -8 9 -10 15 -10 24 -1
6 6 9 15 5 19 -4 3 -7 1 -7 -5z"/>
<path d="M1780 1851 c0 -25 6 -27 13 -6 4 8 2 17 -3 20 -6 4 -10 -3 -10 -14z"/>
<path d="M550 1836 c0 -2 7 -7 16 -10 8 -3 12 -2 9 4 -6 10 -25 14 -25 6z"/>
<path d="M778 1818 c5 -5 16 -8 23 -6 8 3 3 7 -10 11 -17 4 -21 3 -13 -5z"/>
<path d="M559 1788 c-5 -18 -6 -38 -1 -34 7 8 12 36 6 36 -2 0 -4 -1 -5 -2z"/>
<path d="M2113 1755 c0 -8 4 -12 9 -9 5 3 6 10 3 15 -9 13 -12 11 -12 -6z"/>
<path d="M2115 1721 c-3 -5 0 -13 6 -17 7 -4 9 -3 5 4 -3 5 0 13 6 15 9 4 10
6 1 6 -6 1 -14 -3 -18 -8z"/>
<path d="M2116 1662 c-3 -5 1 -9 9 -9 8 0 12 4 9 9 -3 4 -7 8 -9 8 -2 0 -6 -4
-9 -8z"/>
<path d="M1557 1613 c-10 -9 -9 -23 1 -23 5 0 9 7 9 15 0 17 -1 18 -10 8z"/>
<path d="M554 1535 c0 -13 3 -22 7 -19 8 4 6 30 -2 38 -3 3 -5 -5 -5 -19z"/>
<path d="M1480 1520 c-9 -6 -10 -10 -3 -10 6 0 15 5 18 10 8 12 4 12 -15 0z"/>
<path d="M2113 1513 c0 -9 4 -10 14 -2 7 6 13 12 13 14 0 1 -6 2 -13 2 -8 0
-14 -6 -14 -14z"/>
<path d="M2111 1476 c-8 -9 -8 -16 -2 -20 5 -4 12 -2 16 4 3 5 3 10 -2 10 -4
0 -1 5 7 10 8 5 10 10 4 10 -6 0 -17 -6 -23 -14z"/>
<path d="M2120 1440 c-9 -6 -10 -10 -3 -10 6 0 15 5 18 10 8 12 4 12 -15 0z"/>
<path d="M1434 1425 c-4 -8 -9 -13 -13 -10 -4 2 -8 -2 -8 -10 0 -11 5 -10 24
2 12 8 20 19 17 24 -8 13 -14 11 -20 -6z"/>
<path d="M1166 1321 c-3 -5 2 -15 12 -22 15 -12 16 -12 5 2 -7 9 -10 19 -6 22
3 4 4 7 0 7 -3 0 -8 -4 -11 -9z"/>
<path d="M555 1301 c-3 -5 -2 -12 3 -15 5 -3 9 1 9 9 0 17 -3 19 -12 6z"/>
<path d="M1315 1300 c3 -5 8 -10 11 -10 2 0 4 5 4 10 0 6 -5 10 -11 10 -5 0
-7 -4 -4 -10z"/>
<path d="M2120 1280 c-9 -6 -10 -10 -3 -10 6 0 15 5 18 10 8 12 4 12 -15 0z"/>
<path d="M555 1191 c-3 -5 -2 -12 3 -15 5 -3 9 1 9 9 0 17 -3 19 -12 6z"/>
<path d="M2113 1115 c0 -8 4 -12 9 -9 5 3 6 10 3 15 -9 13 -12 11 -12 -6z"/>
<path d="M2115 1081 c-3 -5 0 -13 6 -17 7 -4 9 -3 5 4 -3 5 0 13 6 15 9 4 10
6 1 6 -6 1 -14 -3 -18 -8z"/>
<path d="M554 1055 c0 -13 3 -22 7 -19 8 4 6 30 -2 38 -3 3 -5 -5 -5 -19z"/>
<path d="M2116 1022 c-3 -5 1 -9 9 -9 8 0 12 4 9 9 -3 4 -7 8 -9 8 -2 0 -6 -4
-9 -8z"/>
<path d="M2113 873 c0 -9 4 -10 14 -2 7 6 13 12 13 14 0 1 -6 2 -13 2 -8 0
-14 -6 -14 -14z"/>
<path d="M2111 836 c-8 -9 -8 -16 -2 -20 5 -4 12 -2 16 4 3 5 3 10 -2 10 -4 0
-1 5 7 10 8 5 10 10 4 10 -6 0 -17 -6 -23 -14z"/>
<path d="M555 821 c-3 -5 -2 -12 3 -15 5 -3 9 1 9 9 0 17 -3 19 -12 6z"/>
<path d="M2120 800 c-9 -6 -10 -10 -3 -10 6 0 15 5 18 10 8 12 4 12 -15 0z"/>
<path d="M555 711 c-3 -5 -2 -12 3 -15 5 -3 9 1 9 9 0 17 -3 19 -12 6z"/>
<path d="M2113 650 c1 -11 5 -20 9 -20 3 0 6 9 5 20 -1 11 -5 20 -9 20 -3 0
-6 -9 -5 -20z"/>
<path d="M554 616 c1 -14 4 -28 7 -31 3 -3 5 6 5 19 -1 14 -4 28 -7 31 -3 3
-5 -6 -5 -19z"/>
<path d="M2120 560 c-9 -6 -10 -10 -3 -10 6 0 15 5 18 10 8 12 4 12 -15 0z"/>
<path d="M550 520 c-9 -6 -10 -10 -3 -10 6 0 15 5 18 10 8 12 4 12 -15 0z"/>
<path d="M2115 500 c-3 -5 -1 -10 4 -10 6 0 11 5 11 10 0 6 -2 10 -4 10 -3 0
-8 -4 -11 -10z"/>
<path d="M705 392 c-3 -8 -3 -17 0 -20 3 -3 5 0 5 6 0 7 7 12 15 12 8 0 15 4
15 8 0 15 -29 9 -35 -6z"/>
<path d="M1839 408 c-7 -23 -4 -35 7 -35 9 0 11 4 4 12 -5 7 -7 15 -3 18 3 4
3 7 0 7 -4 0 -7 -1 -8 -2z"/>
<path d="M1915 390 c-3 -5 -1 -10 4 -10 6 0 11 5 11 10 0 6 -2 10 -4 10 -3 0
-8 -4 -11 -10z"/>
</g>
</svg>
